<svg width="20" height="20" viewBox="0 0 20 20" fill="none" xmlns="http://www.w3.org/2000/svg">
<g clip-path="url(#clip0_182_2928)">
<path d="M18.7958 11.3849L17.2124 5.68828C16.7483 4.01939 15.7397 2.55352 14.3469 1.52367C12.954 0.493823 11.2569 -0.0408992 9.5253 0.00450091C7.79368 0.049901 6.12693 0.672818 4.78997 1.77424C3.45301 2.87565 2.52259 4.39236 2.14658 6.08328L0.92075 11.5958C0.785346 12.2049 0.788476 12.8366 0.92991 13.4444C1.07134 14.0521 1.34747 14.6203 1.7379 15.1071C2.12833 15.5938 2.6231 15.9866 3.18568 16.2566C3.74825 16.5265 4.36427 16.6666 4.98825 16.6666H5.91658C6.10785 17.6085 6.61886 18.4553 7.36304 19.0636C8.10721 19.6718 9.03879 20.0041 9.99992 20.0041C10.961 20.0041 11.8926 19.6718 12.6368 19.0636C13.381 18.4553 13.892 17.6085 14.0833 16.6666H14.7816C15.4239 16.6667 16.0576 16.5182 16.633 16.2328C17.2085 15.9474 17.7102 15.5329 18.0989 15.0215C18.4877 14.5101 18.7529 13.9158 18.8739 13.285C18.9949 12.6541 18.9685 12.0039 18.7966 11.3849H18.7958ZM9.99992 18.3333C9.4847 18.3311 8.98273 18.1699 8.56267 17.8715C8.14261 17.5732 7.82499 17.1524 7.65325 16.6666H12.3466C12.1748 17.1524 11.8572 17.5732 11.4372 17.8715C11.0171 18.1699 10.5151 18.3311 9.99992 18.3333V18.3333ZM16.7716 14.0124C16.5394 14.3205 16.2385 14.5702 15.8929 14.7416C15.5473 14.913 15.1665 15.0015 14.7808 14.9999H4.98825C4.6139 14.9999 4.24435 14.9158 3.90687 14.7538C3.56938 14.5918 3.27259 14.3561 3.03838 14.064C2.80418 13.772 2.63855 13.4311 2.55372 13.0665C2.46889 12.7019 2.46702 12.3229 2.54825 11.9574L3.77325 6.44411C4.06854 5.11595 4.79934 3.92462 5.84946 3.05949C6.89959 2.19436 8.20877 1.70509 9.5689 1.66946C10.929 1.63383 12.262 2.05388 13.356 2.86284C14.45 3.6718 15.2422 4.82323 15.6066 6.13411L17.1899 11.8308C17.2945 12.2019 17.3112 12.5923 17.2386 12.9711C17.166 13.3498 17.0061 13.7063 16.7716 14.0124V14.0124Z" fill="currentColor"/>
</g>
<defs>
<clipPath id="clip0_182_2928">
<rect width="20" height="20" fill="white"/>
</clipPath>
</defs>
</svg>
