<svg width="159" height="28" viewBox="0 0 159 28" fill="none" xmlns="http://www.w3.org/2000/svg">
<path d="M0.920508 22.725C0.903841 22.5417 0.895508 22.3417 0.895508 22.125C0.895508 21.9083 0.895508 21.6583 0.895508 21.375C0.895508 20.6583 0.912175 19.8083 0.945508 18.825C0.978841 17.825 1.02884 16.7667 1.09551 15.65C1.16217 14.5167 1.22884 13.3833 1.29551 12.25C1.36217 11.1 1.42884 10 1.49551 8.95C1.57884 7.9 1.65384 6.95833 1.72051 6.125C1.35384 6.24167 1.02884 6.35 0.745508 6.45L0.0955079 2.25C1.97884 1.71667 3.72884 1.31667 5.34551 1.05C6.97884 0.783333 8.45384 0.65 9.77051 0.65C12.4538 0.65 14.5038 1.15833 15.9205 2.175C17.3372 3.19167 18.0455 4.66667 18.0455 6.6C18.0455 7.7 17.8038 8.625 17.3205 9.375C16.8372 10.1083 16.1538 10.7167 15.2705 11.2C17.4372 12.3 18.5205 14.0917 18.5205 16.575C18.5205 17.675 18.3122 18.6 17.8955 19.35C17.4955 20.0833 16.9788 20.675 16.3455 21.125C15.7122 21.575 15.0372 21.9083 14.3205 22.125C13.6205 22.3583 12.9538 22.5083 12.3205 22.575C11.7038 22.6583 11.2205 22.7 10.8705 22.7C10.0038 22.7 9.07884 22.6167 8.09551 22.45C7.11217 22.2833 6.15384 22.0333 5.22051 21.7C5.22051 22.0333 5.22051 22.35 5.22051 22.65L0.920508 22.725ZM9.87051 4.825C9.27051 4.825 8.63718 4.85833 7.97051 4.925C7.32051 4.975 6.67051 5.05833 6.02051 5.175C5.92051 6.39167 5.82051 7.80833 5.72051 9.425C5.93717 9.44167 6.15384 9.45 6.37051 9.45C6.60384 9.45 6.83717 9.45 7.07051 9.45C11.4705 9.45 13.6705 8.55 13.6705 6.75C13.6705 6.15 13.3288 5.68333 12.6455 5.35C11.9788 5 11.0538 4.825 9.87051 4.825ZM7.64551 13.4C7.29551 13.4 6.93717 13.4 6.57051 13.4C6.22051 13.4 5.86217 13.4083 5.49551 13.425C5.46218 14.1583 5.42884 14.8917 5.39551 15.625C5.37884 16.3583 5.35384 17.0833 5.32051 17.8C6.25384 18.0833 7.17051 18.2917 8.07051 18.425C8.97051 18.5417 9.74551 18.6 10.3955 18.6C11.7788 18.6 12.7705 18.4333 13.3705 18.1C13.9705 17.75 14.2705 17.1833 14.2705 16.4C14.2705 15.4333 13.6955 14.6917 12.5455 14.175C11.4122 13.6583 9.77884 13.4 7.64551 13.4ZM28.3457 23C26.7457 23 25.3374 22.6833 24.1207 22.05C22.9207 21.4333 21.979 20.5667 21.2957 19.45C20.629 18.3333 20.2957 17.0417 20.2957 15.575C20.2957 14.6917 20.4457 13.7667 20.7457 12.8C21.0457 11.8167 21.529 10.9 22.1957 10.05C22.8624 9.2 23.7374 8.50833 24.8207 7.975C25.9207 7.44167 27.254 7.175 28.8207 7.175C29.954 7.175 30.904 7.3 31.6707 7.55C32.454 7.8 33.0874 8.125 33.5707 8.525C34.0707 8.925 34.4457 9.35 34.6957 9.8C34.9624 10.25 35.1374 10.6833 35.2207 11.1C35.3207 11.5 35.3707 11.8333 35.3707 12.1C35.3707 13.7167 34.6874 14.9667 33.3207 15.85C31.9707 16.7167 30.054 17.15 27.5707 17.15C27.004 17.15 26.4624 17.125 25.9457 17.075C25.4457 17.025 24.979 16.9667 24.5457 16.9C24.8624 17.7333 25.3874 18.35 26.1207 18.75C26.854 19.1333 27.6124 19.325 28.3957 19.325C29.529 19.325 30.529 19.125 31.3957 18.725C32.2624 18.3083 33.079 17.675 33.8457 16.825L36.0707 20.025C35.5374 20.4583 34.9374 20.9083 34.2707 21.375C33.6207 21.8417 32.8207 22.225 31.8707 22.525C30.9207 22.8417 29.7457 23 28.3457 23ZM28.8957 10.925C27.9124 10.925 27.0457 11.175 26.2957 11.675C25.5457 12.175 24.9957 12.8333 24.6457 13.65C25.0624 13.7167 25.4707 13.775 25.8707 13.825C26.2874 13.8583 26.6957 13.875 27.0957 13.875C27.4624 13.875 27.879 13.8417 28.3457 13.775C28.829 13.7083 29.2957 13.6083 29.7457 13.475C30.2124 13.3417 30.5957 13.175 30.8957 12.975C31.1957 12.7583 31.3457 12.5083 31.3457 12.225C31.3457 12.0917 31.279 11.925 31.1457 11.725C31.0124 11.525 30.7707 11.3417 30.4207 11.175C30.0707 11.0083 29.5624 10.925 28.8957 10.925ZM45.3576 23.075C44.2243 23.075 43.1743 22.9417 42.2076 22.675C41.241 22.4083 40.366 22.0667 39.5826 21.65C38.7993 21.2333 38.0993 20.7917 37.4826 20.325L39.7326 16.7C40.4326 17.35 41.1076 17.85 41.7576 18.2C42.4076 18.55 43.0826 18.7917 43.7826 18.925C44.4993 19.0583 45.2743 19.125 46.1076 19.125C46.8243 19.125 47.3993 19.0333 47.8326 18.85C48.266 18.65 48.4826 18.4 48.4826 18.1C48.4826 17.85 48.2743 17.6583 47.8576 17.525C47.441 17.375 46.9076 17.25 46.2576 17.15C45.6076 17.0333 44.9243 16.8917 44.2076 16.725C43.191 16.4583 42.241 16.15 41.3576 15.8C40.4743 15.45 39.7576 14.975 39.2076 14.375C38.6743 13.775 38.4076 12.975 38.4076 11.975C38.4076 11.175 38.5993 10.475 38.9826 9.875C39.366 9.25833 39.8743 8.75 40.5076 8.35C41.1576 7.93333 41.891 7.625 42.7076 7.425C43.5243 7.225 44.366 7.125 45.2326 7.125C46.7326 7.125 48.0243 7.30833 49.1076 7.675C50.2076 8.025 51.2576 8.49167 52.2576 9.075L49.9826 12.525C49.4826 12.175 48.9076 11.875 48.2576 11.625C47.6243 11.3583 46.9826 11.1583 46.3326 11.025C45.6993 10.875 45.1076 10.8 44.5576 10.8C43.9576 10.8 43.4826 10.8917 43.1326 11.075C42.7993 11.2583 42.6326 11.5167 42.6326 11.85C42.6326 12.05 42.841 12.2417 43.2576 12.425C43.691 12.5917 44.5076 12.8167 45.7076 13.1C46.4243 13.2667 47.1826 13.4417 47.9826 13.625C48.7826 13.7917 49.5326 14.0333 50.2326 14.35C50.9493 14.65 51.5243 15.0917 51.9576 15.675C52.4076 16.2417 52.6326 17 52.6326 17.95C52.6326 19.55 51.991 20.8 50.7076 21.7C49.4243 22.6167 47.641 23.075 45.3576 23.075ZM62.0604 22.975C61.0604 22.975 60.2687 22.7583 59.6854 22.325C59.102 21.9083 58.677 21.325 58.4104 20.575C58.1437 19.825 57.9687 18.9667 57.8854 18C57.8187 17.0333 57.7854 16.0167 57.7854 14.95C57.7854 13.85 57.827 12.7083 57.9104 11.525C56.7937 11.675 55.7187 11.8667 54.6854 12.1L53.9104 8.175C55.2937 7.80833 56.7687 7.54167 58.3354 7.375C58.452 6.525 58.577 5.63333 58.7104 4.7C58.8437 3.75 58.9937 2.75 59.1604 1.7L63.4604 2.075C63.2604 2.94167 63.0854 3.80833 62.9354 4.675C62.7854 5.525 62.652 6.35 62.5354 7.15C63.4687 7.15 64.3437 7.175 65.1604 7.225C65.9937 7.25833 66.7604 7.325 67.4604 7.425L66.9604 11.35C66.377 11.2833 65.7687 11.2417 65.1354 11.225C64.5187 11.1917 63.8937 11.175 63.2604 11.175C62.877 11.175 62.4937 11.1833 62.1104 11.2C62.0104 12.4167 61.9437 13.4583 61.9104 14.325C61.8937 15.1917 61.8854 15.8083 61.8854 16.175C61.8854 17.0917 61.9354 17.75 62.0354 18.15C62.152 18.55 62.3354 18.75 62.5854 18.75C62.8687 18.75 63.1854 18.6583 63.5354 18.475C63.8854 18.275 64.227 18.0083 64.5604 17.675C64.9104 17.3417 65.202 16.9833 65.4354 16.6L67.3604 20.625C65.7104 22.1917 63.9437 22.975 62.0604 22.975ZM75.1711 22.8C75.1711 21.4333 75.1961 19.9667 75.2461 18.4C75.2961 16.8333 75.3628 15.2417 75.4461 13.625C75.5294 12.0083 75.6128 10.425 75.6961 8.875C75.7961 7.325 75.8961 5.86667 75.9961 4.5C76.0961 3.11667 76.1794 1.89167 76.2461 0.824999L80.4211 0.874998C80.3211 1.825 80.2211 2.89167 80.1211 4.075C80.0378 5.25833 79.9544 6.51667 79.8711 7.85C80.3544 7.65 80.8711 7.5 81.4211 7.4C81.9878 7.28333 82.5961 7.225 83.2461 7.225C84.1294 7.225 84.9711 7.375 85.7711 7.675C86.5878 7.95833 87.3211 8.4 87.9711 9C88.6211 9.6 89.1294 10.375 89.4961 11.325C89.8794 12.275 90.0711 13.4167 90.0711 14.75C90.0711 16.1667 89.8711 17.3917 89.4711 18.425C89.0711 19.4583 88.5294 20.3083 87.8461 20.975C87.1628 21.6417 86.3878 22.1333 85.5211 22.45C84.6711 22.7833 83.7961 22.95 82.8961 22.95C82.2128 22.95 81.5711 22.8583 80.9711 22.675C80.3878 22.4917 79.8461 22.25 79.3461 21.95C79.3461 22.2167 79.3461 22.4833 79.3461 22.75L75.1711 22.8ZM82.6711 11.425C81.4211 11.425 80.4044 11.7917 79.6211 12.525C79.5544 14.0583 79.4961 15.5583 79.4461 17.025C80.2628 18.1083 81.4044 18.65 82.8711 18.65C83.3544 18.65 83.8378 18.5417 84.3211 18.325C84.8211 18.0917 85.2378 17.7 85.5711 17.15C85.9044 16.6 86.0711 15.8333 86.0711 14.85C86.0711 13.7333 85.7794 12.8833 85.1961 12.3C84.6294 11.7167 83.7878 11.425 82.6711 11.425ZM97.3174 23.05C96.2507 23.05 95.3674 22.8583 94.6674 22.475C93.984 22.1083 93.434 21.6 93.0174 20.95C92.6174 20.3 92.3174 19.575 92.1174 18.775C91.934 17.9583 91.809 17.1167 91.7424 16.25C91.6924 15.3667 91.6674 14.5167 91.6674 13.7C91.6674 12.7667 91.6924 11.8167 91.7424 10.85C91.809 9.88333 91.8757 8.825 91.9424 7.675L96.5174 7.4C96.4674 7.75 96.3924 8.275 96.2924 8.975C96.1924 9.675 96.1007 10.475 96.0174 11.375C95.934 12.275 95.8924 13.2167 95.8924 14.2C95.8924 15.8167 96.034 17.0167 96.3174 17.8C96.6007 18.5667 97.0257 18.95 97.5924 18.95C98.7257 18.95 99.559 18.125 100.092 16.475C100.626 14.825 100.892 12.2167 100.892 8.65V7.5L103.017 7.45L105.592 7.4C105.359 8.96667 105.184 10.4083 105.067 11.725C104.951 13.0417 104.876 14.15 104.842 15.05C104.809 15.9333 104.792 16.525 104.792 16.825C104.792 17.5917 104.859 18.1417 104.992 18.475C105.126 18.7917 105.359 18.95 105.692 18.95C105.859 18.95 106.042 18.9167 106.242 18.85C106.442 18.7833 106.676 18.6667 106.942 18.5L106.767 22.8C106.134 22.9 105.584 22.95 105.117 22.95C104.317 22.95 103.659 22.8 103.142 22.5C102.642 22.2 102.242 21.8 101.942 21.3C101.426 21.85 100.784 22.275 100.017 22.575C99.2674 22.8917 98.3674 23.05 97.3174 23.05ZM115.304 22.975C114.437 22.975 113.587 22.825 112.754 22.525C111.937 22.225 111.195 21.7583 110.529 21.125C109.879 20.5083 109.362 19.7333 108.979 18.8C108.595 17.85 108.404 16.7417 108.404 15.475C108.404 14.0417 108.62 12.8083 109.054 11.775C109.504 10.725 110.095 9.86667 110.829 9.2C111.562 8.51667 112.379 8.00833 113.279 7.675C114.179 7.34167 115.079 7.175 115.979 7.175C116.512 7.175 117.02 7.21667 117.504 7.3C117.987 7.36667 118.437 7.46667 118.854 7.6C118.904 6.38333 118.962 5.15833 119.029 3.925C119.112 2.69167 119.204 1.475 119.304 0.274999L123.504 0.55C123.37 1.93333 123.254 3.425 123.154 5.025C123.054 6.60833 122.979 8.225 122.929 9.875C122.895 11.525 122.879 13.1333 122.879 14.7C122.879 16.1667 122.895 17.5667 122.929 18.9C122.979 20.2167 123.037 21.4167 123.104 22.5L118.779 22.825C118.762 22.5083 118.754 22.2 118.754 21.9C118.27 22.2167 117.737 22.475 117.154 22.675C116.587 22.875 115.97 22.975 115.304 22.975ZM112.429 15.25C112.429 16.1167 112.595 16.8 112.929 17.3C113.262 17.7833 113.67 18.125 114.154 18.325C114.637 18.525 115.104 18.625 115.554 18.625C116.087 18.625 116.62 18.5083 117.154 18.275C117.687 18.0417 118.187 17.6333 118.654 17.05C118.654 16.85 118.654 16.6583 118.654 16.475C118.654 15.125 118.67 13.7417 118.704 12.325C117.92 11.6417 117.07 11.3 116.154 11.3C115.77 11.3 115.362 11.3583 114.929 11.475C114.495 11.5917 114.087 11.8 113.704 12.1C113.337 12.3833 113.029 12.7833 112.779 13.3C112.545 13.8 112.429 14.45 112.429 15.25ZM131.808 22.975C130.941 22.975 130.091 22.825 129.258 22.525C128.441 22.225 127.699 21.7583 127.033 21.125C126.383 20.5083 125.866 19.7333 125.483 18.8C125.099 17.85 124.908 16.7417 124.908 15.475C124.908 14.0417 125.124 12.8083 125.558 11.775C126.008 10.725 126.599 9.86667 127.333 9.2C128.066 8.51667 128.883 8.00833 129.783 7.675C130.683 7.34167 131.583 7.175 132.483 7.175C133.016 7.175 133.524 7.21667 134.008 7.3C134.491 7.36667 134.941 7.46667 135.358 7.6C135.408 6.38333 135.466 5.15833 135.533 3.925C135.616 2.69167 135.708 1.475 135.808 0.274999L140.008 0.55C139.874 1.93333 139.758 3.425 139.658 5.025C139.558 6.60833 139.483 8.225 139.433 9.875C139.399 11.525 139.383 13.1333 139.383 14.7C139.383 16.1667 139.399 17.5667 139.433 18.9C139.483 20.2167 139.541 21.4167 139.608 22.5L135.283 22.825C135.266 22.5083 135.258 22.2 135.258 21.9C134.774 22.2167 134.241 22.475 133.658 22.675C133.091 22.875 132.474 22.975 131.808 22.975ZM128.933 15.25C128.933 16.1167 129.099 16.8 129.433 17.3C129.766 17.7833 130.174 18.125 130.658 18.325C131.141 18.525 131.608 18.625 132.058 18.625C132.591 18.625 133.124 18.5083 133.658 18.275C134.191 18.0417 134.691 17.6333 135.158 17.05C135.158 16.85 135.158 16.6583 135.158 16.475C135.158 15.125 135.174 13.7417 135.208 12.325C134.424 11.6417 133.574 11.3 132.658 11.3C132.274 11.3 131.866 11.3583 131.433 11.475C130.999 11.5917 130.591 11.8 130.208 12.1C129.841 12.3833 129.533 12.7833 129.283 13.3C129.049 13.8 128.933 14.45 128.933 15.25ZM146.012 27.775L142.262 25.775C143.195 24.7417 144.103 23.675 144.987 22.575C145.87 21.4917 146.712 20.375 147.512 19.225C146.728 18.175 145.945 17.05 145.162 15.85C144.378 14.6333 143.653 13.4417 142.987 12.275C142.32 11.1083 141.778 10.0667 141.362 9.15L145.362 7.4C145.662 8.2 146.045 9.06667 146.512 10C146.995 10.9333 147.52 11.8833 148.087 12.85C148.67 13.8167 149.27 14.7417 149.887 15.625C151.687 12.7083 153.17 9.83333 154.337 7L158.487 8.65C157.737 10.0833 156.887 11.625 155.937 13.275C155.003 14.9083 153.995 16.575 152.912 18.275C151.845 19.9583 150.728 21.6083 149.562 23.225C148.395 24.8583 147.212 26.375 146.012 27.775Z" fill="#41AFE4"/>
</svg>
