<svg width="32" height="32" viewBox="0 0 32 32" fill="none" xmlns="http://www.w3.org/2000/svg">
<circle cx="16" cy="16" r="16" fill="#188BFF"/>
<path d="M22.6666 21.0559C22.6695 21.3284 22.5493 21.5863 22.3354 21.7622C21.9544 22.0729 21.0839 22.6121 19.6742 22.5301C19.6126 22.5301 19.5745 22.533 19.5423 22.5477C19.1467 22.6942 18.0945 23.0342 16.8548 23.0342C16.2686 23.0342 15.7147 22.955 15.2077 22.8026C15.1315 22.7792 15.0582 22.747 14.9849 22.7001C14.8325 22.6063 14.2727 22.2956 13.4462 22.2956C13.2557 22.2956 13.0594 22.3132 12.866 22.3454C12.8484 22.3484 12.7135 22.363 12.5055 22.363C11.7171 22.363 9.82671 22.1432 9.31674 20.1034C9.30795 20.0741 9.00022 19.0248 9.55413 18.0811C9.92635 17.4481 10.5858 17.026 11.5119 16.8238C11.5119 16.8238 11.8109 16.7329 12.2739 16.7329C12.9128 16.7329 13.8624 16.9059 14.7534 17.7265C14.8354 17.8027 14.9556 17.832 15.0582 17.7998C15.278 17.7324 15.6297 17.6503 16.0429 17.6503C16.6818 17.6503 17.2827 17.8349 17.8278 18.1983C17.8336 18.2013 17.8542 18.1983 17.8571 18.1808L18.071 15.1737C18.0769 15.1298 18.071 15.0888 18.0564 15.0477L17.183 13.2336C17.1772 13.2189 17.1713 13.2043 17.1654 13.1867C17.1479 13.1281 17.0834 13.0108 17.0277 13.0108C17.016 13.0108 16.9749 13.0137 16.9075 13.0548C16.8255 13.1046 16.6965 13.175 16.5412 13.1955C16.4767 13.2043 16.4005 13.2131 16.3096 13.2131C16.04 13.2131 15.7469 13.1544 15.4392 13.0401C15.4157 13.0313 15.3952 13.0255 15.3806 13.0225C15.3542 13.0196 15.319 13.0108 15.278 13.002C15.1373 12.9727 14.9263 12.9434 14.8296 13.002C14.6039 13.1339 14.3284 13.2013 14.0178 13.2013C13.7921 13.2013 13.5576 13.1632 13.3525 13.1017C13.1473 13.0372 12.9715 12.9493 12.863 12.8438C12.7135 12.7031 12.6579 12.5097 12.6989 12.2957C12.7546 11.9997 12.989 11.7066 13.2528 11.5982C13.3407 11.563 13.4462 11.519 13.5576 11.4751C13.2147 11.1644 12.8718 10.716 13.1385 10.3203C13.159 10.2881 13.1883 10.2588 13.2206 10.2383C13.2235 10.2354 13.6573 9.94814 13.9328 9.4792C14.0529 9.28577 14.387 8.96631 14.9028 8.96631C15.1022 8.96631 15.3102 9.01321 15.5242 9.107C15.8349 9.1832 17.6344 9.64626 18.285 10.2705C18.5195 10.5226 19.2258 11.3256 19.2756 11.8414C19.4925 12.539 19.9321 13.7142 20.2223 14.0132C20.2662 14.0571 20.3014 14.0981 20.3336 14.148C20.6795 14.6785 21.8166 16.4692 21.9749 17.3543C22.0511 17.5917 22.6431 19.4293 22.6666 21.0559Z" fill="white"/>
</svg>
