<svg width="19" height="25" viewBox="0 0 19 25" fill="none" xmlns="http://www.w3.org/2000/svg">
<path d="M3.86823 16.083C2.81357 15.1088 2.00912 13.8949 1.52295 12.544C1.03679 11.1931 0.883213 9.74488 1.07523 8.32204C1.2651 6.8793 1.80197 5.50411 2.63982 4.31435C3.47768 3.12458 4.59153 2.15572 5.88591 1.49081C7.18029 0.82589 8.6166 0.484749 10.0717 0.496622C11.5269 0.508496 12.9574 0.87303 14.2408 1.55898C15.5241 2.24493 16.622 3.23184 17.4404 4.43512C18.2587 5.6384 18.773 7.02216 18.9393 8.4678C19.1056 9.91345 18.9189 11.3779 18.3952 12.7355C17.8714 14.0932 17.0263 15.3036 15.9322 16.263C15.2277 16.8687 14.6807 17.6364 14.3382 18.5H11.0002V11.316C11.5831 11.11 12.0881 10.7288 12.4461 10.2247C12.8041 9.72066 12.9977 9.1183 13.0002 8.50004C13.0002 8.23482 12.8949 7.98046 12.7073 7.79293C12.5198 7.60539 12.2655 7.50004 12.0002 7.50004C11.735 7.50004 11.4807 7.60539 11.2931 7.79293C11.1056 7.98046 11.0002 8.23482 11.0002 8.50004C11.0002 8.76525 10.8949 9.01961 10.7073 9.20714C10.5198 9.39468 10.2655 9.50004 10.0002 9.50004C9.73502 9.50004 9.48066 9.39468 9.29313 9.20714C9.10559 9.01961 9.00023 8.76525 9.00023 8.50004C9.00023 8.23482 8.89488 7.98046 8.70734 7.79293C8.5198 7.60539 8.26545 7.50004 8.00023 7.50004C7.73502 7.50004 7.48066 7.60539 7.29313 7.79293C7.10559 7.98046 7.00023 8.23482 7.00023 8.50004C7.0028 9.1183 7.19632 9.72066 7.55432 10.2247C7.91232 10.7288 8.41733 11.11 9.00023 11.316V18.5H5.56323C5.18093 17.5806 4.60246 16.7557 3.86823 16.083ZM6.00023 20.5V20.81C6.00129 21.7884 6.3904 22.7263 7.08218 23.4181C7.77396 24.1099 8.71191 24.499 9.69023 24.5H10.3102C11.2886 24.499 12.2265 24.1099 12.9183 23.4181C13.6101 22.7263 13.9992 21.7884 14.0002 20.81V20.5H6.00023Z" fill="#9AEB69"/>
</svg>
