<svg width="20" height="20" viewBox="0 0 20 20" fill="none" xmlns="http://www.w3.org/2000/svg">
<path d="M11.6101 3.33333C12.288 3.334 12.9379 3.60357 13.4172 4.08289C13.8966 4.56222 14.1661 5.21213 14.1668 5.89C14.1668 6.11101 14.2546 6.32298 14.4109 6.47926C14.5672 6.63554 14.7791 6.72333 15.0001 6.72333C15.2212 6.72333 15.4331 6.63554 15.5894 6.47926C15.7457 6.32298 15.8335 6.11101 15.8335 5.89V5.83333C15.8335 5.8175 15.8335 5.80333 15.8335 5.7875C15.8057 4.68561 15.3486 3.63815 14.5597 2.86838C13.7708 2.09861 12.7124 1.6674 11.6101 1.66667H10.8335V0.833333C10.8335 0.61232 10.7457 0.400358 10.5894 0.244078C10.4331 0.0877974 10.2212 0 10.0001 0C9.77913 0 9.56717 0.0877974 9.41089 0.244078C9.25461 0.400358 9.16681 0.61232 9.16681 0.833333V1.66667H8.39014C7.38791 1.66774 6.41872 2.02519 5.6558 2.67515C4.89289 3.3251 4.38598 4.22519 4.22569 5.21452C4.06539 6.20385 4.26215 7.21795 4.7808 8.07555C5.29945 8.93315 6.10619 9.57835 7.05681 9.89583L9.16681 10.6V16.6667H8.39014C7.71228 16.666 7.06236 16.3964 6.58304 15.9171C6.10371 15.4378 5.83414 14.7879 5.83348 14.11C5.83348 13.889 5.74568 13.677 5.5894 13.5207C5.43312 13.3645 5.22116 13.2767 5.00014 13.2767C4.77913 13.2767 4.56717 13.3645 4.41089 13.5207C4.25461 13.677 4.16681 13.889 4.16681 14.11V14.1667C4.16681 14.1825 4.16681 14.1967 4.16681 14.2125C4.19462 15.3144 4.65169 16.3618 5.44061 17.1316C6.22953 17.9014 7.2879 18.3326 8.39014 18.3333H9.16681V19.1667C9.16681 19.3877 9.25461 19.5996 9.41089 19.7559C9.56717 19.9122 9.77913 20 10.0001 20C10.2212 20 10.4331 19.9122 10.5894 19.7559C10.7457 19.5996 10.8335 19.3877 10.8335 19.1667V18.3333H11.6101C12.6124 18.3323 13.5816 17.9748 14.3445 17.3249C15.1074 16.6749 15.6143 15.7748 15.7746 14.7855C15.9349 13.7961 15.7381 12.7821 15.2195 11.9245C14.7008 11.0669 13.8941 10.4216 12.9435 10.1042L10.8335 9.4V3.33333H11.6101ZM12.4185 11.6842C12.9947 11.8759 13.4838 12.2665 13.7982 12.786C14.1127 13.3055 14.232 13.92 14.1348 14.5194C14.0375 15.1189 13.7301 15.6641 13.2675 16.0575C12.8049 16.451 12.2174 16.6669 11.6101 16.6667H10.8335V11.1558L12.4185 11.6842ZM9.16681 8.84417L7.58348 8.31583C7.00743 8.12411 6.5184 7.73364 6.20392 7.21432C5.88944 6.695 5.77003 6.08071 5.86706 5.4814C5.96409 4.88208 6.27123 4.33685 6.7335 3.94329C7.19578 3.54972 7.78302 3.3335 8.39014 3.33333H9.16681V8.84417Z" fill="currentColor"/>
</svg>
