<svg width="20" height="20" viewBox="0 0 20 20" fill="none" xmlns="http://www.w3.org/2000/svg">
<g clip-path="url(#clip0_182_2927)">
<path d="M19.2677 7.55742L12.9468 1.23575C12.1645 0.455743 11.1049 0.0177307 10.0002 0.0177307C8.89546 0.0177307 7.83581 0.455743 7.05351 1.23575L0.732678 7.55742C0.499699 7.78891 0.314986 8.06433 0.189247 8.36774C0.0635072 8.67115 -0.000757487 8.99649 0.000177913 9.32492V17.5058C0.000177913 18.1688 0.26357 18.8047 0.732411 19.2735C1.20125 19.7424 1.83714 20.0058 2.50018 20.0058H17.5002C18.1632 20.0058 18.7991 19.7424 19.2679 19.2735C19.7368 18.8047 20.0002 18.1688 20.0002 17.5058V9.32492C20.0011 8.99649 19.9368 8.67115 19.8111 8.36774C19.6854 8.06433 19.5007 7.78891 19.2677 7.55742ZM12.5002 18.3391H7.50018V15.0608C7.50018 14.3977 7.76357 13.7618 8.23241 13.293C8.70125 12.8241 9.33714 12.5608 10.0002 12.5608C10.6632 12.5608 11.2991 12.8241 11.7679 13.293C12.2368 13.7618 12.5002 14.3977 12.5002 15.0608V18.3391ZM18.3335 17.5058C18.3335 17.7268 18.2457 17.9387 18.0894 18.095C17.9332 18.2513 17.7212 18.3391 17.5002 18.3391H14.1668V15.0608C14.1668 13.9557 13.7279 12.8959 12.9465 12.1145C12.1651 11.3331 11.1052 10.8941 10.0002 10.8941C8.89511 10.8941 7.8353 11.3331 7.0539 12.1145C6.2725 12.8959 5.83351 13.9557 5.83351 15.0608V18.3391H2.50018C2.27916 18.3391 2.0672 18.2513 1.91092 18.095C1.75464 17.9387 1.66684 17.7268 1.66684 17.5058V9.32492C1.66762 9.10407 1.75534 8.89241 1.91101 8.73575L8.23184 2.41659C8.70159 1.94903 9.3374 1.68654 10.0002 1.68654C10.663 1.68654 11.2988 1.94903 11.7685 2.41659L18.0893 8.73825C18.2444 8.89429 18.3321 9.10494 18.3335 9.32492V17.5058Z" fill="currentColor"/>
</g>
<defs>
<clipPath id="clip0_182_2927">
<rect width="20" height="20" fill="white"/>
</clipPath>
</defs>
</svg>
