<svg width="24" height="23" viewBox="0 0 24 23" fill="none" xmlns="http://www.w3.org/2000/svg">
<path d="M23.9001 10.9372C23.5072 7.9126 21.9774 5.15112 19.6215 3.21402C17.2656 1.27693 14.2605 0.309592 11.217 0.508629C8.17353 0.707666 5.32002 2.05814 3.2365 4.28556C1.15297 6.51298 -0.0042192 9.45019 0.000135089 12.5002C-0.00562931 14.1327 0.325193 15.7489 0.97195 17.2478C1.61871 18.7468 2.56751 20.0963 3.75914 21.2122C4.67047 22.0559 5.87129 22.5171 7.11313 22.5002H16.8801C18.1921 22.5033 19.4526 21.9899 20.3891 21.0712C21.7238 19.7726 22.7364 18.18 23.346 16.4204C23.9557 14.6609 24.1454 12.7831 23.9001 10.9372ZM7.47214 19.1612C7.38537 19.2599 7.28 19.3405 7.16206 19.3984C7.04412 19.4563 6.91592 19.4904 6.78479 19.4988C6.65365 19.5072 6.52216 19.4896 6.39782 19.4471C6.27348 19.4046 6.15873 19.338 6.06013 19.2512C4.68572 18.0445 3.7119 16.4474 3.26858 14.673C2.82525 12.8986 2.93349 11.0312 3.57885 9.3199C4.22422 7.60859 5.37603 6.13474 6.88066 5.09493C8.38528 4.05513 10.1712 3.49881 12.0001 3.50018C12.7587 3.50041 13.5142 3.59548 14.2491 3.78318C14.3764 3.81601 14.4959 3.87359 14.6009 3.95261C14.7059 4.03164 14.7943 4.13058 14.8611 4.24377C14.9279 4.35697 14.9717 4.4822 14.99 4.61233C15.0084 4.74246 15.001 4.87493 14.9681 5.00218C14.9353 5.12943 14.8777 5.24897 14.7987 5.35397C14.7197 5.45897 14.6207 5.54738 14.5075 5.61415C14.3944 5.68091 14.2691 5.72473 14.139 5.74309C14.0089 5.76146 13.8764 5.75401 13.7491 5.72118C12.2256 5.32631 10.6135 5.45682 9.17335 6.09162C7.73322 6.72642 6.54928 7.82839 5.81297 9.21937C5.07666 10.6103 4.83102 12.209 5.11577 13.7569C5.40052 15.3047 6.19901 16.7113 7.38213 17.7492C7.48081 17.836 7.56142 17.9413 7.61935 18.0593C7.67728 18.1772 7.7114 18.3054 7.71976 18.4365C7.72812 18.5677 7.71055 18.6992 7.66806 18.8235C7.62557 18.9478 7.559 19.0626 7.47214 19.1612ZM12.0001 14.5002C11.7135 14.504 11.4293 14.4461 11.167 14.3304C10.9046 14.2147 10.6702 14.044 10.4796 13.8298C10.289 13.6157 10.1467 13.363 10.0623 13.089C9.97795 12.815 9.95347 12.526 9.99055 12.2417C10.0276 11.9574 10.1254 11.6844 10.2772 11.4412C10.4291 11.198 10.6314 10.9903 10.8706 10.8321C11.1097 10.674 11.3801 10.5691 11.6633 10.5246C11.9465 10.4801 12.236 10.497 12.5121 10.5742L16.2931 6.79318C16.3854 6.69767 16.4957 6.62149 16.6177 6.56908C16.7397 6.51667 16.871 6.48909 17.0037 6.48793C17.1365 6.48678 17.2682 6.51208 17.3911 6.56236C17.514 6.61264 17.6256 6.68689 17.7195 6.78079C17.8134 6.87468 17.8877 6.98633 17.938 7.10923C17.9882 7.23212 18.0135 7.3638 18.0124 7.49658C18.0112 7.62936 17.9836 7.76058 17.9312 7.88259C17.8788 8.00459 17.8026 8.11493 17.7071 8.20718L13.9261 11.9882C14.0095 12.284 14.0228 12.5951 13.9648 12.8969C13.9069 13.1987 13.7794 13.4828 13.5924 13.7266C13.4054 13.9705 13.1641 14.1674 12.8877 14.3017C12.6113 14.436 12.3074 14.5039 12.0001 14.5002ZM17.9401 19.2512C17.7402 19.419 17.4825 19.502 17.2222 19.4825C16.9619 19.4629 16.7196 19.3423 16.547 19.1465C16.3744 18.9506 16.2852 18.695 16.2985 18.4343C16.3118 18.1736 16.4265 17.9284 16.6181 17.7512C17.5905 16.8984 18.3073 15.7927 18.6888 14.5569C19.0703 13.3211 19.1016 12.0037 18.7791 10.7512C18.7128 10.4942 18.7513 10.2214 18.8862 9.99277C19.021 9.76416 19.2411 9.59849 19.4981 9.53218C19.7551 9.46588 20.0279 9.50438 20.2565 9.63922C20.4852 9.77406 20.6508 9.99419 20.7171 10.2512C20.9049 10.9861 21 11.7416 21.0001 12.5002C20.9987 13.7782 20.725 15.0413 20.1974 16.2053C19.6698 17.3694 18.9003 18.4077 17.9401 19.2512Z" fill="#191919"/>
</svg>
