<svg width="20" height="20" viewBox="0 0 20 20" fill="none" xmlns="http://www.w3.org/2000/svg">
<g clip-path="url(#clip0_182_2926)">
<path d="M18.7376 9.1461L10.0001 14.3894L1.26263 9.1461C1.07311 9.03239 0.846183 8.99862 0.631766 9.05223C0.417349 9.10583 0.233009 9.24242 0.119297 9.43194C0.00558569 9.62146 -0.0281823 9.84838 0.0254218 10.0628C0.079026 10.2772 0.215611 10.4616 0.405131 10.5753L9.5718 16.0753C9.70141 16.1531 9.84976 16.1943 10.001 16.1943C10.1522 16.1943 10.3005 16.1531 10.4301 16.0753L19.5968 10.5753C19.7863 10.4616 19.9229 10.2772 19.9765 10.0628C20.0301 9.84838 19.9963 9.62146 19.8826 9.43194C19.7689 9.24242 19.5846 9.10583 19.3702 9.05223C19.1558 8.99862 18.9288 9.03239 18.7393 9.1461H18.7376Z" fill="currentColor"/>
<path d="M18.7377 12.9523L10.0002 18.1949L1.26268 12.9523C1.16884 12.896 1.06483 12.8588 0.956586 12.8427C0.848342 12.8266 0.737985 12.8319 0.631817 12.8585C0.525649 12.885 0.425748 12.9322 0.337818 12.9974C0.249889 13.0625 0.175652 13.1443 0.119348 13.2382C0.0630439 13.332 0.0257742 13.436 0.00966707 13.5443C-0.0064401 13.6525 -0.00106932 13.7629 0.0254728 13.869C0.0790769 14.0835 0.215662 14.2678 0.405182 14.3815L9.57185 19.8815C9.70146 19.9594 9.84981 20.0005 10.001 20.0005C10.1522 20.0005 10.3006 19.9594 10.4302 19.8815L19.5969 14.3815C19.7864 14.2678 19.923 14.0835 19.9766 13.869C20.0302 13.6546 19.9964 13.4277 19.8827 13.2382C19.769 13.0487 19.5846 12.9121 19.3702 12.8585C19.1558 12.8049 18.9289 12.8386 18.7394 12.9523H18.7377Z" fill="currentColor"/>
<path d="M9.99993 12.3112C9.55041 12.3109 9.10941 12.1885 8.72409 11.957L0.404092 6.96451C0.280882 6.89042 0.178935 6.78572 0.10816 6.66058C0.0373845 6.53544 0.000189304 6.39411 0.000189304 6.25034C0.000189304 6.10657 0.0373845 5.96525 0.10816 5.84011C0.178935 5.71497 0.280882 5.61026 0.404092 5.53618L8.72409 0.543675C9.1094 0.312199 9.55043 0.189911 9.99993 0.189911C10.4494 0.189911 10.8904 0.312199 11.2758 0.543675L19.5958 5.53618C19.719 5.61026 19.8209 5.71497 19.8917 5.84011C19.9625 5.96525 19.9997 6.10657 19.9997 6.25034C19.9997 6.39411 19.9625 6.53544 19.8917 6.66058C19.8209 6.78572 19.719 6.89042 19.5958 6.96451L11.2758 11.957C10.8904 12.1885 10.4494 12.3109 9.99993 12.3112ZM2.45326 6.25034L9.58326 10.5278C9.70919 10.6032 9.85319 10.643 9.99993 10.643C10.1467 10.643 10.2907 10.6032 10.4166 10.5278L17.5466 6.25034L10.4166 1.97284C10.2907 1.89751 10.1467 1.85773 9.99993 1.85773C9.85319 1.85773 9.70919 1.89751 9.58326 1.97284L2.45326 6.25034Z" fill="currentColor"/>
</g>
<defs>
<clipPath id="clip0_182_2926">
<rect width="20" height="20" fill="white"/>
</clipPath>
</defs>
</svg>
