<svg width="32" height="32" viewBox="0 0 32 32" fill="none" xmlns="http://www.w3.org/2000/svg">
<circle cx="16" cy="16" r="16" fill="#9D75EF"/>
<path d="M15.1795 7.66577C14.9664 7.66577 14.7442 7.73744 14.581 7.89994C14.4512 8.03078 14.5269 7.99577 14.0608 8.3691C13.2343 9.0316 12.8531 9.7116 12.734 10.9991C11.9158 10.9991 10.2653 10.9991 10.1854 10.9991C9.72592 10.9991 9.35303 11.3724 9.35303 11.8324V17.5616C9.35303 19.7799 10.5732 21.6824 12.2404 22.6658H11.0177C10.5583 22.6658 10.1854 23.0391 10.1854 23.4991C10.1854 23.9591 10.5583 24.3324 11.0177 24.3324H21.0059C21.4654 24.3324 21.8383 23.9591 21.8383 23.4991C21.8383 23.0391 21.4654 22.6658 21.0059 22.6658H19.7574C21.5145 21.6274 22.6706 19.6916 22.6706 17.6658C24.5093 17.6658 26 16.1733 26 14.3324C26 12.4916 24.5093 10.9991 22.6706 10.9991C21.9099 10.9991 22.0464 10.9991 21.8383 10.9991C21.8125 10.9991 21.1316 10.9991 21.0059 10.9991C20.6397 10.9991 19.4977 10.9991 18.5871 10.9991C18.6604 10.3524 18.7985 10.0224 19.2372 9.67078C19.7791 9.23661 19.7433 9.2941 19.9397 9.09827C20.2643 8.77243 20.2643 8.22578 19.9397 7.89994C19.7766 7.73744 19.5543 7.66577 19.3412 7.66577C19.1282 7.66577 18.9059 7.73744 18.7428 7.89994C18.6129 8.03078 18.6887 7.99577 18.2226 8.3691C17.4019 9.0266 17.0414 9.72827 16.9224 10.9991C15.8054 10.9991 15.485 10.9991 14.4254 10.9991C14.5003 10.3441 14.6326 10.0258 15.0754 9.67078C15.6173 9.23661 15.5815 9.2941 15.7779 9.09827C16.1026 8.77243 16.1026 8.22578 15.7779 7.89994C15.6148 7.73744 15.3926 7.66577 15.1795 7.66577ZM22.6706 12.6658C23.5904 12.6658 24.3353 13.4116 24.3353 14.3324C24.3353 15.2533 23.5904 15.9991 22.6706 15.9991V12.6658Z" fill="white"/>
</svg>
