<svg width="20" height="20" viewBox="0 0 20 20" fill="none" xmlns="http://www.w3.org/2000/svg">
<g clip-path="url(#clip0_182_2922)">
<path d="M14.9952 1.90508C13.978 0.996366 12.7323 0.382233 11.3921 0.128773C10.0519 -0.124688 8.66798 -0.00787851 7.38922 0.466629C6.11047 0.941137 4.98532 1.75538 4.13487 2.82172C3.28441 3.88807 2.74085 5.16615 2.56267 6.51841C2.40266 7.70412 2.53063 8.91092 2.93577 10.0367C3.34091 11.1625 4.01129 12.1741 4.89017 12.9859C5.43368 13.4625 5.87224 14.0468 6.17808 14.7018C6.48391 15.3568 6.65035 16.0682 6.66684 16.7909V16.9251C6.66772 17.7403 6.99198 18.522 7.56846 19.0985C8.14495 19.6749 8.92657 19.9992 9.74184 20.0001H10.2585C11.0738 19.9992 11.8554 19.6749 12.4319 19.0985C13.0084 18.522 13.3326 17.7403 13.3335 16.9251V16.4676C13.346 15.8288 13.4963 15.2003 13.7742 14.6249C14.0521 14.0496 14.4509 13.5411 14.9435 13.1342C15.7423 12.4346 16.3834 11.5732 16.8242 10.6071C17.2649 9.64107 17.4954 8.59235 17.5003 7.53047C17.5052 6.4686 17.2844 5.41781 16.8525 4.44771C16.4206 3.47762 15.7875 2.61036 14.9952 1.90341V1.90508ZM10.2585 18.3334H9.74184C9.36846 18.333 9.0105 18.1845 8.74649 17.9204C8.48247 17.6564 8.33395 17.2985 8.33351 16.9251C8.33351 16.9251 8.32767 16.7084 8.32684 16.6667H11.6668V16.9251C11.6664 17.2985 11.5179 17.6564 11.2539 17.9204C10.9898 18.1845 10.6319 18.333 10.2585 18.3334ZM13.8418 11.8826C12.893 12.7055 12.2078 13.7899 11.8718 15.0001H10.8335V9.01341C11.3193 8.84168 11.7401 8.52405 12.0384 8.104C12.3368 7.68394 12.498 7.18196 12.5002 6.66675C12.5002 6.44573 12.4124 6.23377 12.2561 6.07749C12.0998 5.92121 11.8879 5.83341 11.6668 5.83341C11.4458 5.83341 11.2339 5.92121 11.0776 6.07749C10.9213 6.23377 10.8335 6.44573 10.8335 6.66675C10.8335 6.88776 10.7457 7.09972 10.5894 7.256C10.4331 7.41228 10.2212 7.50008 10.0002 7.50008C9.77916 7.50008 9.5672 7.41228 9.41092 7.256C9.25464 7.09972 9.16684 6.88776 9.16684 6.66675C9.16684 6.44573 9.07904 6.23377 8.92276 6.07749C8.76648 5.92121 8.55452 5.83341 8.33351 5.83341C8.11249 5.83341 7.90053 5.92121 7.74425 6.07749C7.58797 6.23377 7.50017 6.44573 7.50017 6.66675C7.50231 7.18196 7.66358 7.68394 7.96191 8.104C8.26025 8.52405 8.68108 8.84168 9.16684 9.01341V15.0001H8.06518C7.68933 13.7578 6.98444 12.6402 6.02517 11.7659C5.21097 11.0072 4.63078 10.0315 4.35307 8.95382C4.07535 7.87614 4.11171 6.74151 4.45785 5.68382C4.80399 4.62614 5.44546 3.68954 6.30656 2.98455C7.16767 2.27956 8.21247 1.83561 9.31767 1.70508C9.54678 1.6795 9.77714 1.66671 10.0077 1.66675C11.439 1.66249 12.8207 2.1906 13.8843 3.14841C14.5008 3.69808 14.9933 4.37249 15.3293 5.12693C15.6653 5.88138 15.8371 6.69863 15.8333 7.52451C15.8295 8.35039 15.6503 9.16604 15.3074 9.91738C14.9645 10.6687 14.4658 11.3386 13.8443 11.8826H13.8418Z" fill="currentColor"/>
</g>
<defs>
<clipPath id="clip0_182_2922">
<rect width="20" height="20" fill="white"/>
</clipPath>
</defs>
</svg>
