<svg width="32" height="32" viewBox="0 0 32 32" fill="none" xmlns="http://www.w3.org/2000/svg">
<circle cx="16" cy="16" r="16" fill="#EB539F"/>
<path d="M15.4678 21.6772C14.6745 22.3448 13.4936 22.3425 12.7012 21.6739C9.9846 19.382 6.5293 16.6034 6.5293 13.0722C6.5293 10.7223 8.3573 8.87598 10.6838 8.87598C11.9982 8.87598 13.2597 9.45497 14.083 10.4315C14.9064 9.45497 16.1679 8.87598 17.4822 8.87598C19.8087 8.87598 21.6368 10.7223 21.6368 13.0722C21.6368 16.5972 18.1865 19.3893 15.4678 21.6772Z" fill="white"/>
<path d="M23.492 22.7735C22.7141 23.4015 21.5684 23.3993 20.7908 22.7712C19.2722 21.5445 17.6082 20.0819 17.6082 18.274C17.6082 16.9313 18.705 15.8762 20.1009 15.8762C20.8895 15.8762 21.6464 16.2071 22.1404 16.7651C22.6344 16.2071 23.3913 15.8762 24.1799 15.8762C25.5758 15.8762 26.6726 16.9313 26.6726 18.274C26.6726 20.0787 25.011 21.5472 23.492 22.7735Z" fill="white" stroke="#EB539F"/>
</svg>
